<svg width="42" height="26" viewBox="0 0 42 26" fill="none" xmlns="http://www.w3.org/2000/svg">
<path d="M2.25001 4.66667H39.75C40.3025 4.66667 40.8324 4.44717 41.2231 4.05647C41.6138 3.66577 41.8333 3.13587 41.8333 2.58333C41.8333 2.0308 41.6138 1.5009 41.2231 1.11019C40.8324 0.719494 40.3025 0.5 39.75 0.5H2.25001C1.69747 0.5 1.16757 0.719494 0.776866 1.11019C0.386165 1.5009 0.166672 2.0308 0.166672 2.58333C0.166672 3.13587 0.386165 3.66577 0.776866 4.05647C1.16757 4.44717 1.69747 4.66667 2.25001 4.66667ZM39.75 21.3333H2.25001C1.69747 21.3333 1.16757 21.5528 0.776866 21.9435C0.386165 22.3342 0.166672 22.8641 0.166672 23.4167C0.166672 23.9692 0.386165 24.4991 0.776866 24.8898C1.16757 25.2805 1.69747 25.5 2.25001 25.5H39.75C40.3025 25.5 40.8324 25.2805 41.2231 24.8898C41.6138 24.4991 41.8333 23.9692 41.8333 23.4167C41.8333 22.8641 41.6138 22.3342 41.2231 21.9435C40.8324 21.5528 40.3025 21.3333 39.75 21.3333ZM39.75 10.9167H2.25001C1.69747 10.9167 1.16757 11.1362 0.776866 11.5269C0.386165 11.9176 0.166672 12.4475 0.166672 13C0.166672 13.5525 0.386165 14.0824 0.776866 14.4731C1.16757 14.8638 1.69747 15.0833 2.25001 15.0833H39.75C40.3025 15.0833 40.8324 14.8638 41.2231 14.4731C41.6138 14.0824 41.8333 13.5525 41.8333 13C41.8333 12.4475 41.6138 11.9176 41.2231 11.5269C40.8324 11.1362 40.3025 10.9167 39.75 10.9167Z" fill="#0B60B0"/>
</svg>
