<svg width="32" height="32" viewBox="0 0 32 32" fill="none" xmlns="http://www.w3.org/2000/svg">
<path d="M31.168 28.957C31.3131 29.1022 31.4283 29.2746 31.5069 29.4642C31.5854 29.6539 31.6259 29.8572 31.6259 30.0625C31.6259 30.2678 31.5854 30.4711 31.5069 30.6608C31.4283 30.8505 31.3131 31.0228 31.168 31.168C31.0228 31.3132 30.8505 31.4283 30.6608 31.5069C30.4711 31.5854 30.2678 31.6259 30.0625 31.6259C29.8572 31.6259 29.6539 31.5854 29.4642 31.5069C29.2745 31.4283 29.1022 31.3132 28.957 31.168L16 18.209L3.04297 31.168C2.74978 31.4612 2.35213 31.6259 1.9375 31.6259C1.52287 31.6259 1.12522 31.4612 0.83203 31.168C0.538842 30.8748 0.37413 30.4771 0.37413 30.0625C0.37413 29.6479 0.538842 29.2502 0.83203 28.957L13.791 16L0.83203 3.04298C0.538842 2.74979 0.37413 2.35215 0.37413 1.93751C0.37413 1.52288 0.538842 1.12523 0.83203 0.832046C1.12522 0.538857 1.52287 0.374146 1.9375 0.374146C2.35213 0.374146 2.74978 0.538857 3.04297 0.832046L16 13.791L28.957 0.832046C29.2502 0.538857 29.6479 0.374145 30.0625 0.374146C30.4771 0.374146 30.8748 0.538857 31.168 0.832046C31.4612 1.12523 31.6259 1.52288 31.6259 1.93751C31.6259 2.35215 31.4612 2.74979 31.168 3.04298L18.209 16L31.168 28.957Z" fill="#0B60B0"/>
</svg>
