<svg width="35" height="40" viewBox="0 0 35 40" fill="none" xmlns="http://www.w3.org/2000/svg">
<path d="M7.64625 33.9635C4.02609 26.5456 1.87234 22.0659 1.87234 21.9547C1.87234 21.7733 2.09352 21.7984 4.26859 22.225C8.09398 22.9761 10.1378 23.188 13.5448 23.1892C18.0523 23.1905 21.7229 22.4766 24.5748 21.042C26.0835 20.283 26.9909 19.6102 27.734 18.6988C28.6493 17.5755 28.9434 16.802 28.9539 15.4998C28.9631 14.2614 28.7963 13.6084 28.0797 12.093C27.7961 11.4941 27.5471 10.8068 27.5233 10.5656C27.4862 10.1775 27.518 10.1219 27.8041 10.0887C28.4294 10.0147 31.5156 13.0109 32.6522 14.7951C34.6112 17.8721 34.7702 21.2008 33.1119 24.4197C32.0931 26.3973 30.9673 27.7656 29.0824 29.3208C25.9497 31.9038 22.3084 33.7025 17.2802 35.1516C14.5794 35.9305 10.2121 36.875 9.31266 36.875C9.12203 36.875 8.76422 36.2498 7.64891 33.9623L7.64625 33.9634V33.9635ZM8.65438 22.0009C5.1375 21.5453 2.18641 21.1491 2.095 21.1201C1.93875 21.0698 1.37977 19.2048 1.06445 17.6867C0.985 17.3026 0.868359 16.2852 0.804844 15.4244C0.52125 11.583 1.35711 8.92703 3.59703 6.53883C7.3893 2.49883 15.5091 2.00734 24.6701 5.26328C26.278 5.83555 26.9166 6.23289 26.6213 6.48055C26.4027 6.66336 24.9218 6.6607 22.3627 6.47258C18.3623 6.17851 15.3171 6.73484 13.7475 8.04883C11.3578 10.049 11.7222 14.4335 14.8045 20.7584C15.1384 21.4432 15.4748 22.1134 15.5516 22.2498C15.7305 22.5637 15.6007 22.8552 15.2894 22.8406C15.1568 22.8343 12.171 22.4569 8.6543 22.0011L8.65438 22.0009ZM20.4525 18.5598C17.6456 18.0551 15.1223 16.3145 14.3077 14.3237C13.9169 13.3673 13.9354 12.1195 14.3527 11.3726C14.7302 10.697 15.705 9.91555 16.578 9.58828C18.0311 9.04391 20.5756 9.26109 22.4301 10.0891C24.1905 10.8746 25.7509 12.2561 26.331 13.5409C27.0755 15.1901 26.4555 17.03 24.8607 17.9082C23.8036 18.4897 21.7492 18.793 20.4511 18.5598L20.4525 18.5598Z" fill="#0B60B0"/>
</svg>
